<?xml version="1.0" encoding="iso-8859-1"?>
<!-- Uploaded to: SVG Repo, www.svgrepo.com, Generator: SVG Repo Mixer Tools -->
<svg height="800px" width="800px" version="1.1" id="Layer_1" xmlns="http://www.w3.org/2000/svg" xmlns:xlink="http://www.w3.org/1999/xlink" 
	 viewBox="0 0 511.996 511.996" xml:space="preserve">
<g>
	<path style="fill:#E8EDEE;" d="M238.201,369.378l-52.824,47.642v94.958h141.241v-94.835l-52.18-47.81
		C263.695,359.589,249.298,359.271,238.201,369.378L238.201,369.378z"/>
	<g>
		<path style="fill:#B0BAC1;" d="M172.714,427.625c-7.424,6.771-18.865,6.506-25.971-0.6c-7.53-7.53-7.309-19.809,0.494-27.065
			l9.71-8.854l-23.755-21.769c-10.743-9.746-25.141-10.063-36.228,0.044l-52.833,47.642v94.958h141.241v-94.835l-0.433-0.397
			L172.714,427.625z"/>
		<path style="fill:#B0BAC1;" d="M415.676,369.333c-10.743-9.746-25.141-10.063-36.237,0.044l-24.188,21.822l9.481,8.73
			c7.821,7.247,8.06,19.544,0.512,27.092l0,0c-7.097,7.097-18.503,7.371-25.935,0.636l-12.262-11.026l-0.433,0.397v94.949h141.241
			v-94.826L415.676,369.333z"/>
	</g>
	<path style="fill:#434C6D;" d="M223.014,330.889l-75.776,69.067c-7.804,7.256-8.024,19.535-0.494,27.065
		c7.106,7.106,18.547,7.371,25.971,0.6l65.483-58.244c11.096-10.108,25.494-9.79,36.237-0.044l64.874,58.324
		c7.433,6.735,18.838,6.462,25.935-0.636l0,0c7.548-7.548,7.309-19.844-0.512-27.092l-75.087-69.111
		C270.842,313.402,241.782,313.428,223.014,330.889"/>
	<polygon style="fill:#B0BAC1;" points="238.342,511.98 273.652,511.98 273.652,459.015 238.342,459.015 	"/>
	<g>
		<polygon style="fill:#E8EDEE;" points="97.1,511.98 132.411,511.98 132.411,459.015 97.1,459.015 		"/>
		<polygon style="fill:#E8EDEE;" points="379.583,511.98 414.893,511.98 414.893,459.015 379.583,459.015 		"/>
	</g>
	<g>
		<path style="fill:#2D3751;" d="M185.563,365.022l-37.164-34.198c-18.803-17.426-47.863-17.399-66.631,0.062L5.993,399.953
			c-7.795,7.256-8.015,19.535-0.486,27.074c7.106,7.097,18.538,7.371,25.962,0.6l65.492-58.244
			c11.096-10.116,25.485-9.79,36.228-0.053l23.985,21.566L185.563,365.022z"/>
		<path style="fill:#2D3751;" d="M505.973,399.926l-75.087-69.102c-18.803-17.426-47.863-17.399-66.631,0.062l-37.447,34.136
			l28.275,26.024l24.364-21.663c11.087-10.116,25.485-9.79,36.228-0.053l64.874,58.324c7.433,6.744,18.838,6.462,25.935-0.627
			v-0.009C514.032,419.479,513.794,407.174,505.973,399.926"/>
	</g>
	<path style="fill:#24AE5F;" d="M255.997,0.015c-53.628,0.009-97.103,43.441-97.103,97.068c0,22.449,8.545,42.417,20.427,59.524
		c9.913,14.274,18.926,27.825,27.604,41.295c17.646,27.418,33.942,55.676,49.073,84.559c15.13-28.884,31.426-57.141,49.073-84.559
		c8.678-13.471,17.69-27.021,27.604-41.295c11.882-17.108,20.427-37.076,20.427-59.524C353.1,43.455,309.624,0.023,255.997,0.015"/>
	<g>
		<path style="fill:#FFFFFF;" d="M247.178,158.877c-2.692,0-5.332-1.218-7.071-3.531l-26.483-35.31
			c-2.931-3.902-2.136-9.437,1.766-12.359c3.902-2.922,9.437-2.145,12.359,1.766l26.483,35.31c2.931,3.902,2.136,9.437-1.766,12.359
			C250.877,158.303,249.023,158.877,247.178,158.877"/>
		<path style="fill:#FFFFFF;" d="M247.16,158.877c-1.545,0-3.116-0.406-4.537-1.262c-4.175-2.507-5.535-7.927-3.019-12.111
			l52.966-88.276c2.507-4.167,7.918-5.535,12.111-3.019c4.175,2.507,5.535,7.927,3.019,12.111l-52.966,88.276
			C253.084,157.35,250.162,158.877,247.16,158.877"/>
	</g>
</g>
</svg>