<?xml version="1.0" encoding="iso-8859-1"?>
<!-- Uploaded to: SVG Repo, www.svgrepo.com, Generator: SVG Repo Mixer Tools -->
<svg height="800px" width="800px" version="1.1" id="Layer_1" xmlns="http://www.w3.org/2000/svg" xmlns:xlink="http://www.w3.org/1999/xlink" 
	 viewBox="0 0 512.002 512.002" xml:space="preserve">
<g>
	<path style="fill:#EEAF4B;" d="M212.673,106.434c-2.313-15.395,9.746-27.454,25.141-25.141l30.941,4.652
		c3.151-7.424,4.899-15.581,4.899-24.152C273.654,27.666,245.988,0,211.861,0s-61.793,27.666-61.793,61.793
		s27.666,61.793,61.793,61.793c1.139,0,2.242-0.106,3.363-0.168L212.673,106.434z"/>
	<path style="fill:#C89544;" d="M273.658,61.795c0,8.572-1.748,16.728-4.899,24.152l35.646,5.358
		c7.971,1.192,15.607,5.12,21.575,11.087l0.38,0.38c5.729-9.375,9.092-20.356,9.092-32.15c0-34.127-27.666-61.793-61.793-61.793
		c-8.28,0-16.163,1.66-23.384,4.608C264.503,24.763,273.658,42.198,273.658,61.795"/>
	<path style="fill:#FDD4A2;" d="M411.328,206.568l-73.375,73.384c-5.199,5.191-14.168,4.652-20.039-1.209l-84.136-84.145
		c-5.967-5.967-9.896-13.603-11.096-21.575l-10.01-66.586c-2.313-15.404,9.746-27.463,25.141-25.141l66.586,10.01
		c7.971,1.192,15.616,5.12,21.583,11.087l84.136,84.145C415.989,192.4,416.528,201.369,411.328,206.568"/>
	<g>
		<path style="fill:#DEB588;" d="M326.623,247.174c-2.26,0-4.52-0.865-6.241-2.586c-3.452-3.452-3.452-9.031,0-12.482l26.483-26.483
			c3.452-3.452,9.031-3.452,12.482,0c3.452,3.452,3.452,9.031,0,12.482l-26.483,26.483
			C331.143,246.309,328.883,247.174,326.623,247.174"/>
		<path style="fill:#DEB588;" d="M300.14,220.691c-2.26,0-4.52-0.865-6.241-2.586c-3.452-3.452-3.452-9.031,0-12.482l26.483-26.483
			c3.452-3.452,9.031-3.452,12.482,0c3.452,3.452,3.452,9.031,0,12.482l-26.483,26.483C304.66,219.826,302.4,220.691,300.14,220.691
			"/>
	</g>
	<path style="fill:#867E6C;" d="M273.658,141.243c-38.938,0-70.621-31.682-70.621-70.621c0-10.584,2.286-20.762,6.797-30.261
		c2.083-4.405,7.362-6.294,11.758-4.193c4.405,2.092,6.276,7.362,4.193,11.758c-3.381,7.115-5.094,14.751-5.094,22.696
		c0,29.21,23.755,52.966,52.966,52.966c4.873,0,8.828,3.955,8.828,8.828C282.485,137.288,278.53,141.243,273.658,141.243"/>
	<path style="fill:#C89544;" d="M238.347,199.171l-4.573-4.573c-5.967-5.967-9.896-13.603-11.096-21.575l-7.45-49.602
		c-1.121,0.062-2.225,0.168-3.363,0.168c-9.49,0-18.45-2.207-26.483-6.029V264.83l27.004,26.483l25.962-26.483v-8.828
		l-17.655-17.655l17.655-17.655V199.171z"/>
	<path style="fill:#FBC592;" d="M505.822,345.743c6.833-5.667,8.218-15.713,3.046-22.925c-11.061-15.404-20.233-19.068-58.659,1.139
		l-76.57,46.804c-23.402,12.438-84.807,8.828-111.298,8.828c0,0,62.517,4.237,37.57-33.006
		c-12.403-18.52-33.81-29.034-56.099-29.034h-34.436l0,0c-20.074,0-39.865-5.967-55.896-18.052
		C116.075,271.3,44.139,326.622,44.139,326.622v158.897h123.586l0,0c17.629,0,35.24-1.333,52.665-3.981l115.059-17.496
		c3.928,0,7.742-0.459,11.432-1.28c0.062-0.009,0.115-0.018,0.177-0.027c9.313-1.306,17.823-6.02,24.62-12.526L505.822,345.743z"/>
	<polygon style="fill:#2872C7;" points="0.002,512.002 44.14,512.002 44.14,300.14 0.002,300.14 	"/>
	<path style="fill:#F9A471;" d="M141.244,414.898c-4.882,0-8.828-3.946-8.828-8.828c0-22.113,16.499-35.31,44.138-35.31h97.103
		c4.882,0,8.828,3.946,8.828,8.828c0,4.882-3.946,8.828-8.828,8.828h-97.103c-26.483,0-26.483,13.286-26.483,17.655
		C150.071,410.952,146.125,414.898,141.244,414.898"/>
</g>
</svg>